<?xml version="1.0" encoding="UTF-8" standalone="no"?>
<svg
   xmlns:dc="http://purl.org/dc/elements/1.1/"
   xmlns:cc="http://creativecommons.org/ns#"
   xmlns:rdf="http://www.w3.org/1999/02/22-rdf-syntax-ns#"
   xmlns:svg="http://www.w3.org/2000/svg"
   xmlns="http://www.w3.org/2000/svg"
   id="svg3499"
   preserveAspectRatio="xMidYMid meet"
   viewBox="0 0 16000 3010"
   height="301px"
   width="1600px"
   version="1.0">
  <metadata
     id="metadata3550">
    <rdf:RDF>
      <cc:Work
         rdf:about="">
        <dc:format>image/svg+xml</dc:format>
        <dc:type
           rdf:resource="http://purl.org/dc/dcmitype/StillImage" />
        <dc:title></dc:title>
      </cc:Work>
    </rdf:RDF>
  </metadata>
  <defs
     id="defs3548" />
  <g
     style="fill:#ebebeb;fill-opacity:0.92156863"
     stroke="none"
     fill="#d2d2d2"
     id="layer2">
    <path
       style="fill:#ebebeb;fill-opacity:0.92156863"
       id="path3507"
       d="M14625 2996 c-130 -49 -215 -171 -215 -309 0 -100 35 -173 115 -245 l45 -40 0 -886 c0 -568 -3 -886 -10 -886 -19 0 -100 -91 -122 -138 -27 -59 -36 -168 -17 -226 28 -88 96 -167 178 -208 39 -19 62 -23 152 -23 92 0 111 3 152 24 82 42 148 114 174 191 17 48 16 180 -1 221 -22 53 -70 114 -115 145 l-41 29 0 503 c0 475 1 503 18 498 9 -2 44 -10 77 -16 172 -32 241 -58 307 -118 84 -76 158 -221 158 -310 0 -29 -9 -43 -53 -86 -99 -95 -130 -213 -89 -338 22 -66 69 -128 126 -166 69 -47 104 -57 201 -57 81 1 96 4 158 34 70 35 122 85 154 150 22 45 30 186 13 245 -16 58 -77 136 -127 164 -40 22 -41 23 -47 91 -12 118 -70 277 -140 381 -114 170 -268 264 -496 300 -93 15 -151 34 -212 67 l-48 26 0 199 c0 164 2 198 14 198 25 0 108 93 133 148 34 78 33 193 -4 268 -32 66 -95 127 -166 160 -44 20 -66 24 -147 23 -52 -1 -109 -6 -125 -13z m176 -153 c19 -4 50 -24 76 -49 40 -41 43 -47 43 -99 0 -60 -10 -86 -44 -119 -38 -36 -64 -46 -122 -46 -77 0 -134 33 -163 95 -26 55 -26 68 -2 121 36 80 116 116 212 97z m936 -1815 c15 -7 42 -27 59 -45 107 -112 -2 -281 -165 -259 -160 22 -192 236 -46 301 38 17 116 19 152 3z m-911 -527 c62 -28 94 -76 94 -140 0 -86 -38 -135 -127 -161 -83 -25 -180 28 -212 115 -11 32 -11 45 0 79 33 103 146 152 245 107z" />
  </g>
  <g
     stroke="none"
     fill="#000000"
     id="layer3">
    <path
       id="path3510"
       d="M3295 2457 c-97 -33 -136 -67 -156 -134 -20 -68 12 -143 77 -181 13 -8 15 -14 8 -19 -24 -17 -54 -80 -54 -115 0 -46 17 -85 50 -118 l25 -26 -36 -48 c-49 -65 -66 -136 -49 -207 14 -56 44 -112 76 -140 60 -53 170 -85 254 -75 30 4 124 9 208 12 l152 5 0 85 0 84 -47 0 -48 0 0 92 c0 95 -9 125 -52 174 -44 51 -164 89 -256 82 -75 -7 -87 -3 -87 28 0 42 42 54 189 54 156 0 208 12 260 60 63 58 75 121 41 214 -32 84 -112 144 -230 172 -65 16 -282 17 -325 1z m260 -144 c79 -26 115 -74 79 -103 -21 -18 -264 -31 -280 -16 -43 43 -18 98 54 120 62 19 89 19 147 -1z m-32 -559 c45 -45 48 -115 6 -167 -16 -22 -29 -27 -63 -27 -60 0 -87 33 -87 105 0 57 13 88 46 104 36 17 71 12 98 -15z" />
    <path
       id="path3512"
       d="M13162 2454 c-109 -34 -147 -79 -147 -176 0 -65 1 -67 43 -108 42 -42 43 -43 25 -64 -11 -11 -25 -38 -32 -60 -17 -50 0 -113 41 -157 29 -30 29 -31 10 -47 -47 -41 -66 -93 -66 -182 0 -60 5 -94 16 -116 55 -102 179 -162 309 -150 35 4 133 9 217 12 l152 5 0 85 0 84 -56 0 c-49 0 -55 2 -49 18 15 37 17 93 5 143 -14 59 -71 130 -124 154 -75 34 -178 45 -230 25 -21 -8 -27 -6 -36 11 -15 27 -5 54 26 67 15 7 79 12 157 12 187 0 258 27 303 112 34 65 6 184 -56 245 -38 37 -105 70 -186 92 -57 15 -269 12 -322 -5z m297 -153 c48 -25 66 -53 51 -80 -12 -24 -39 -29 -173 -33 l-108 -3 -17 28 c-25 40 -2 75 63 99 60 22 126 18 184 -11z m-58 -552 c23 -25 29 -40 29 -76 0 -74 -30 -112 -90 -113 -47 0 -74 20 -89 68 -36 109 77 200 150 121z" />
    <path
       id="path3514"
       d="M289 2167 c-78 -26 -125 -80 -147 -169 -7 -27 -12 -122 -12 -222 l0 -176 -50 0 -50 0 0 -90 0 -89 33 -5 c17 -3 43 -7 57 -8 22 -3 25 -9 27 -43 2 -22 8 -66 14 -97 l12 -58 93 0 94 0 0 100 0 100 90 0 90 0 0 95 0 95 -90 0 -90 0 0 155 c0 217 15 246 121 232 45 -6 46 -5 59 60 25 120 27 110 -16 117 -76 13 -199 15 -235 3z" />
    <path
       id="path3516"
       d="M1734 2165 c-68 -21 -107 -45 -154 -94 -74 -77 -110 -170 -110 -286 0 -116 36 -209 110 -286 97 -101 231 -132 373 -87 155 49 247 187 247 373 0 194 -93 327 -269 384 -44 14 -145 12 -197 -4z m149 -187 c68 -39 100 -147 77 -259 -14 -67 -57 -123 -102 -134 -37 -9 -98 23 -122 65 -28 49 -30 207 -3 263 31 64 99 93 150 65z" />
    <path
       id="path3518"
       d="M2475 2164 c-51 -19 -88 -55 -117 -113 -21 -44 -23 -59 -26 -343 l-4 -298 115 0 115 0 4 253 c3 218 5 256 20 279 32 49 104 45 161 -10 l27 -26 0 -248 0 -249 118 3 117 3 0 370 0 370 -96 3 c-93 3 -97 2 -103 -20 -3 -13 -6 -34 -6 -47 l0 -25 -32 31 c-81 76 -196 103 -293 67z" />
    <path
       id="path3520"
       d="M4997 2161 c-58 -24 -73 -35 -102 -81 -36 -58 -45 -118 -45 -304 l0 -176 -50 0 -50 0 0 -90 0 -89 33 -5 c17 -3 43 -7 57 -8 20 -2 25 -9 27 -33 2 -16 8 -60 14 -97 l11 -68 94 0 94 0 0 100 0 100 90 0 90 0 0 95 0 95 -90 0 -90 0 0 155 c0 209 14 238 108 232 29 -2 55 0 58 4 4 7 15 55 30 135 6 30 5 32 -32 38 -101 18 -198 16 -247 -3z" />
    <path
       id="path3522"
       d="M5479 2157 c-68 -23 -149 -70 -149 -87 0 -6 19 -39 43 -75 40 -62 61 -76 83 -56 26 26 94 53 141 58 66 7 106 -14 101 -54 -3 -28 -40 -50 -148 -92 -75 -30 -128 -68 -158 -116 -21 -32 -26 -53 -26 -106 0 -120 53 -185 182 -225 110 -33 265 -1 354 74 16 13 15 17 -12 56 -16 22 -39 54 -53 70 l-23 29 -48 -27 c-64 -36 -127 -44 -161 -22 -41 27 -30 56 35 88 30 14 72 32 95 39 54 17 119 62 152 105 32 42 42 124 24 192 -38 140 -244 211 -432 149z" />
    <path
       id="path3524"
       d="M7559 2166 c-111 -35 -177 -123 -206 -271 -16 -88 -16 -144 2 -219 42 -176 161 -286 309 -286 40 0 146 37 146 51 0 5 3 9 8 9 4 0 5 -79 4 -175 l-4 -175 116 0 116 0 0 530 0 530 -95 0 c-84 0 -95 -2 -95 -17 0 -10 -4 -24 -9 -32 -8 -12 -12 -12 -26 2 -9 10 -41 28 -71 42 -60 27 -132 32 -195 11z m188 -188 c15 -6 38 -21 51 -32 21 -19 22 -27 22 -166 0 -165 -1 -167 -77 -189 -33 -9 -48 -9 -65 0 -69 36 -91 84 -91 198 1 105 24 163 76 185 41 18 50 19 84 4z" />
    <path
       id="path3526"
       d="M8460 2166 c-173 -48 -270 -183 -270 -380 0 -123 36 -212 120 -297 88 -89 212 -119 336 -83 76 22 131 67 172 143 35 63 36 67 36 180 l1 116 -223 3 -222 2 19 38 c41 80 84 106 174 105 42 0 77 -7 107 -22 24 -11 47 -21 50 -21 14 0 72 129 66 145 -3 9 -26 25 -51 36 -108 48 -222 60 -315 35z m200 -486 c0 -29 -27 -78 -49 -90 -25 -13 -94 -13 -123 1 -21 9 -78 85 -78 103 0 3 56 6 125 6 119 0 125 -1 125 -20z" />
    <path
       id="path3528"
       d="M9085 2160 c-81 -40 -125 -114 -125 -210 0 -73 17 -114 64 -158 60 -56 77 -63 222 -101 23 -6 60 -11 83 -11 32 0 41 -4 41 -17 -1 -41 -57 -83 -109 -83 -33 0 -132 34 -169 58 -12 8 -25 13 -27 10 -15 -15 -84 -152 -80 -159 5 -8 90 -50 130 -64 123 -44 254 -45 345 -2 37 17 86 72 112 125 22 45 23 58 26 330 l3 282 -96 0 c-84 0 -95 -2 -95 -17 -1 -41 -16 -46 -56 -19 -88 58 -195 72 -269 36z m252 -196 c31 -23 33 -29 33 -84 l0 -59 -37 6 c-84 13 -153 61 -153 107 0 59 95 77 157 30z" />
    <path
       id="path3530"
       d="M9888 2165 c-58 -16 -153 -62 -169 -81 -11 -14 9 -51 75 -136 13 -18 42 -24 48 -10 8 17 97 54 145 59 39 4 59 1 78 -11 54 -35 22 -76 -95 -123 -150 -60 -207 -114 -217 -205 -16 -156 100 -268 279 -268 43 0 123 17 173 36 33 12 95 56 95 66 0 11 -55 94 -81 121 -17 18 -19 18 -64 -7 -63 -36 -126 -44 -160 -22 -58 38 -24 68 157 141 116 46 167 128 154 243 -7 60 -41 120 -86 152 -75 53 -226 74 -332 45z" />
    <path
       id="path3532"
       d="M11660 2159 c-25 -11 -56 -31 -71 -45 l-25 -24 -13 35 -12 35 -90 0 -89 0 0 -530 0 -530 115 0 115 0 0 176 c0 97 3 174 8 172 4 -2 30 -14 57 -27 114 -55 243 -31 323 59 98 110 119 353 44 514 -71 152 -229 224 -362 165z m77 -181 c15 -7 34 -19 42 -26 26 -25 51 -111 51 -176 0 -100 -24 -152 -84 -183 -25 -13 -33 -13 -71 1 -81 32 -86 43 -83 207 l3 144 45 23 c51 26 59 26 97 10z" />
    <path
       id="path3534"
       d="M12336 2160 c-59 -29 -83 -57 -106 -117 -18 -49 -20 -78 -20 -344 l0 -290 113 3 112 3 3 255 c2 233 4 257 22 280 16 21 27 25 65 24 38 -1 52 -7 80 -34 l35 -34 0 -248 0 -248 115 0 115 0 0 375 0 375 -95 0 -95 0 -1 -27 c-1 -61 -11 -66 -52 -27 -75 71 -208 95 -291 54z" />
    <path
       id="path3536"
       d="M13965 2165 c-52 -15 -71 -22 -123 -48 -68 -33 -70 -40 -28 -100 72 -104 64 -100 134 -56 87 54 212 48 212 -10 0 -28 -27 -47 -136 -94 -102 -44 -165 -90 -190 -139 -21 -41 -18 -141 6 -188 36 -70 80 -102 176 -129 72 -19 168 -10 259 25 33 13 95 56 95 66 0 12 -91 138 -99 138 -3 0 -24 -11 -47 -24 -81 -46 -169 -45 -181 2 -5 20 0 30 23 49 16 12 34 23 39 23 25 0 165 64 197 90 96 79 103 230 16 320 -76 79 -231 112 -353 75z" />
    <path
       id="path3538"
       d="M662 1633 l3 -528 119 -3 119 -3 -5 186 c-3 102 -4 185 -1 185 2 0 21 -12 42 -26 83 -54 177 -67 262 -35 125 48 148 126 149 499 l0 252 -119 0 -120 0 -3 -263 c-3 -240 -5 -265 -21 -282 -37 -36 -143 -13 -179 40 -4 5 -8 121 -8 258 l0 247 -120 0 -120 0 2 -527z" />
    <path
       id="path3540"
       d="M3980 1630 l0 -530 116 0 116 0 -4 185 c-2 102 -1 185 2 185 4 0 15 -8 26 -17 10 -10 30 -23 44 -30 115 -53 222 -42 295 32 63 64 67 84 72 413 l5 292 -116 0 -116 0 -1 -217 c0 -234 -7 -305 -32 -330 -24 -24 -89 -18 -136 13 l-41 27 0 253 0 254 -115 0 -115 0 0 -530z" />
    <path
       id="path3542"
       d="M6970 1785 l0 -375 115 0 115 0 0 375 0 375 -115 0 -115 0 0 -375z" />
    <path
       id="path3544"
       d="M6993 1284 c-30 -23 -33 -30 -33 -80 0 -66 11 -89 50 -109 34 -18 119 -20 154 -4 36 17 59 72 52 123 -12 73 -44 96 -133 96 -47 0 -64 -5 -90 -26z" />
  </g>
  <path
     transform="scale(9.9999999,9.9999999)"
     id="path4244"
     d="m 1463.0629,299.75073 c -4.7209,-1.36822 -11.6276,-6.5371 -15.3819,-11.5116 -4.9915,-6.61391 -6.5456,-11.96762 -6.1413,-21.15675 0.4238,-9.63233 2.8223,-14.77227 10.2946,-22.06127 l 5.501,-5.3661 -0.3198,-87.65982 -0.3199,-87.659825 -4.0457,-3.990146 c -8.8064,-8.685396 -11.2449,-14.291447 -11.2534,-25.870984 -0,-5.982267 0.4155,-7.882139 2.7942,-12.642448 3.2961,-6.595896 10.3114,-13.5115312 16.47,-16.235739 3.5699,-1.5791523 6.2474,-1.9321684 14.6547,-1.9321684 12.3176,0 16.5258,1.611317 24.3243,9.3139254 7.2048,7.116104 8.9577,11.600256 8.9799,22.97147 0.017,8.569995 -0.1916,9.654009 -2.7397,14.254447 -1.5167,2.738496 -5.1689,7.161084 -8.1159,9.827974 l -5.3582,4.848891 0,49.331573 c 0,40.94636 0.2163,49.41456 1.2724,49.81984 0.6999,0.26856 6.2303,-0.59792 12.2899,-1.92551 14.641,-3.20769 22.8815,-7.22101 29.1202,-14.18224 8.3518,-9.319 14.7936,-25.67442 12.0969,-30.71326 -0.5784,-1.08071 -3.314,-4.50038 -6.079,-7.59926 -6.8086,-7.63055 -9.1287,-13.864936 -8.6006,-23.11173 0.245,-4.291898 1.1429,-8.632474 2.344,-11.331922 2.8336,-6.368666 9.9046,-13.51454 16.4547,-16.629093 4.9686,-2.362503 6.5597,-2.646217 14.8406,-2.646217 8.334,0 9.8592,0.276186 15.0273,2.721119 7.1858,3.399445 13.4593,9.105525 16.2107,14.744315 1.8029,3.695038 2.1158,5.826791 2.1331,14.533102 0.019,9.566822 -0.1492,10.508698 -2.6973,15.108086 -2.5533,4.60875 -7.6212,10.01923 -12.3471,13.18177 -1.6558,1.10805 -2.2754,2.80725 -3.0438,8.34627 -2.6711,19.25642 -11.7427,37.99397 -23.8918,49.34889 -10.1457,9.48252 -20.6143,14.3305 -38.93,18.02848 -7.4048,1.49505 -14.5098,3.61166 -19.0118,5.66374 l -7.1884,3.27657 0,19.7373 0,19.7373 3.0145,1.86762 c 3.179,1.96954 8.5833,8.60138 11.4508,14.0518 2.6673,5.06995 2.4638,19.35171 -0.3636,25.50725 -2.9092,6.33362 -9.7318,13.12178 -16.4205,16.33746 -5.047,2.42642 -6.429,2.66785 -14.8406,2.59264 -5.1015,-0.0456 -10.584,-0.46219 -12.1835,-0.92575 z m 16.3199,-15.35338 c 1.6679,-0.33358 5.0484,-2.50004 7.6875,-4.92667 4.6827,-4.30578 4.7101,-4.36424 4.6577,-9.92679 -0.099,-10.54837 -5.5391,-16.08737 -15.7992,-16.08737 -7.0333,0 -11.0622,1.53537 -14.3822,5.4809 -3.9495,4.69374 -4.9776,9.40119 -3.1171,14.27284 3.2622,8.54188 11.6876,13.04024 20.9533,11.18709 z m 97.3684,-183.82738 c 7.1907,-5.811384 8.905,-13.671172 4.4501,-20.403007 -6.5039,-9.828113 -23.5488,-10.144564 -29.4803,-0.547324 -5.5813,9.030796 -0.782,21.046441 9.4364,23.624971 5.4997,1.38781 11.9323,0.28449 15.5938,-2.67464 z m -94.2866,-50.593415 c 7.0785,-3.028689 10.3356,-9.736772 8.8167,-18.15799 -1.9667,-10.903845 -17.4441,-15.964867 -26.5062,-8.667384 -4.7655,3.837524 -7.7892,9.252405 -7.2495,12.98259 1.295,8.950248 8.2337,15.119852 17.0046,15.119852 2.7223,0 6.2928,-0.574681 7.9344,-1.277068 z"
     style="opacity:1;fill:#4285f4;fill-opacity:0.00392157" />
  <path
     transform="scale(9.9999999,9.9999999)"
     id="path4246"
     d="m 1463.9601,299.87108 c -7.5707,-1.80322 -15.725,-8.97178 -19.9457,-17.53468 -1.7739,-3.59883 -2.1229,-5.81293 -2.1395,-13.57553 -0.024,-11.40827 1.671,-15.45687 9.8777,-23.58748 l 5.5637,-5.5122 -0.3103,-87.61631 -0.3104,-87.61631 -5.2172,-5.469415 c -7.4907,-7.852635 -9.4093,-12.051503 -9.8784,-21.618575 -0.3174,-6.471967 -0.027,-8.838742 1.6229,-13.214293 2.5373,-6.730195 9.6297,-14.6138718 16.0054,-17.7909859 4.3377,-2.1615582 5.8277,-2.3860257 15.8385,-2.3860257 10.6365,0 11.2574,0.1103492 16.5793,2.9469036 6.2205,3.315502 11.7073,9.029301 14.8393,15.453235 1.7574,3.604593 2.1121,5.868584 2.1303,13.599861 0.02,8.573695 -0.1866,9.652023 -2.7358,14.254447 -1.5167,2.738496 -5.1689,7.161084 -8.1159,9.827974 l -5.3582,4.848891 0,49.331573 c 0,40.94636 0.2163,49.41456 1.2724,49.81984 0.6999,0.26856 6.2303,-0.59792 12.2899,-1.92551 14.641,-3.20769 22.8815,-7.22101 29.1202,-14.18224 8.3518,-9.319 14.7936,-25.67442 12.0969,-30.71326 -0.5784,-1.08071 -3.314,-4.50038 -6.079,-7.59926 -6.8086,-7.63055 -9.1287,-13.864932 -8.6006,-23.11173 0.245,-4.291898 1.1429,-8.632474 2.344,-11.331922 2.7475,-6.17518 9.6598,-13.184018 16.2503,-16.477326 5.1218,-2.559373 6.4048,-2.799385 14.9613,-2.798716 8.4063,6.57e-4 9.9393,0.275237 15.0591,2.697304 7.2939,3.450614 12.8206,8.465251 15.8734,14.402528 2.1541,4.189576 2.4214,5.797876 2.4763,14.899436 0.054,8.927806 -0.2039,10.700773 -2.0632,14.186726 -2.6636,4.99402 -7.77,10.69502 -11.8231,13.20001 -2.6109,1.6136 -3.1957,2.61591 -3.6646,6.28111 -2.6957,21.06947 -12.197,41.07468 -25.1414,52.93588 -10.1901,9.33734 -21.3277,14.16386 -42.111,18.24886 -4.3363,0.8523 -11.1189,3.02374 -15.0725,4.82543 l -7.1884,3.27579 0,19.39813 0,19.39813 5.3777,4.97879 c 2.9577,2.73833 6.6049,7.20327 8.1048,9.92207 2.4771,4.49016 2.7278,5.75098 2.7348,13.75487 0.01,11.07936 -2.111,16.34441 -9.3354,23.17692 -7.6817,7.26508 -12.8736,9.28717 -23.5776,9.18284 -4.8463,-0.0472 -10.1339,-0.40083 -11.75,-0.78578 z m 15.4227,-15.47373 c 1.6679,-0.33358 5.0484,-2.50004 7.6875,-4.92667 4.6827,-4.30578 4.7101,-4.36424 4.6577,-9.92679 -0.099,-10.54837 -5.5391,-16.08737 -15.7992,-16.08737 -7.0333,0 -11.0622,1.53537 -14.3822,5.4809 -3.9495,4.69374 -4.9776,9.40119 -3.1171,14.27284 3.2622,8.54188 11.6876,13.04024 20.9533,11.18709 z m 97.3684,-183.82738 c 7.1907,-5.811384 8.905,-13.671172 4.4501,-20.403007 -6.5039,-9.828113 -23.5488,-10.144564 -29.4803,-0.547324 -5.5813,9.030796 -0.782,21.046441 9.4364,23.624971 5.4997,1.38781 11.9323,0.28449 15.5938,-2.67464 z m -94.2866,-50.593415 c 7.0785,-3.028689 10.3356,-9.736772 8.8167,-18.15799 -1.9667,-10.903845 -17.4441,-15.964867 -26.5062,-8.667384 -4.7655,3.837524 -7.7892,9.252405 -7.2495,12.98259 1.295,8.950248 8.2337,15.119852 17.0046,15.119852 2.7223,0 6.2928,-0.574681 7.9344,-1.277068 z"
     style="opacity:1;fill:#4285f4;fill-opacity:0.00392157" />
  <path
     transform="scale(9.9999999,9.9999999)"
     id="path4248"
     d="m 1463.9601,299.91931 c -4.4142,-1.12382 -10.8221,-5.16819 -14.0955,-8.89636 -5.3588,-6.10336 -7.8193,-12.20537 -8.2785,-20.53029 -0.6044,-10.95942 1.1501,-15.51705 9.2606,-24.05523 l 6.4463,-6.78635 -0.2987,-87.61134 -0.2987,-87.611335 -5.3737,-5.633415 c -7.6841,-8.055274 -9.445,-12.395481 -9.4571,-23.309483 -0.01,-7.36616 0.3448,-9.531366 2.1513,-13.199437 3.1111,-6.317022 9.6555,-13.1817401 15.2011,-15.9452446 4.3453,-2.1653844 5.8375,-2.39155 15.7784,-2.39155 9.9666,0 11.4151,0.2209554 15.7072,2.3958929 6.0687,3.0752546 12.7591,9.7878077 15.6392,15.6910637 1.9398,3.975953 2.262,5.961138 2.2584,13.913043 -0,8.538499 -0.2233,9.6737 -2.7603,14.289479 -1.5687,2.853865 -5.2957,7.249618 -8.6507,10.202898 l -5.8946,5.188783 0.5845,48.678245 c 0.3214,26.77303 0.9442,49.03798 1.3838,49.47766 1.8009,1.80087 26.9799,-4.74859 33.3689,-8.6798 8.9461,-5.50458 18.2868,-18.93339 20.5679,-29.56979 1.3946,-6.50287 0.8227,-8.12164 -5.2888,-14.971 -7.5318,-8.44098 -9.1481,-12.447218 -9.1481,-22.674446 0,-6.610838 0.4196,-9.258244 2.0167,-12.723226 2.8748,-6.23735 9.7803,-13.209303 16.3202,-16.477326 5.1339,-2.565431 6.3935,-2.799448 15.0686,-2.799448 8.9745,0 9.8054,0.169621 15.9925,3.264926 7.3126,3.658362 12.4534,8.746465 15.3291,15.172264 1.5269,3.411708 1.9318,6.276731 1.9825,14.026578 0.059,9.095309 -0.116,10.063398 -2.6539,14.644318 -2.5299,4.56646 -7.5121,9.90512 -12.3017,13.18177 -1.618,1.10691 -2.3311,3.1572 -3.4885,10.03057 -4.0588,24.10415 -16.1737,44.44409 -32.7229,54.9393 -7.1144,4.51181 -16.8458,8.02316 -29.465,10.63172 -8.1056,1.67555 -14.6122,3.68078 -19.8503,6.11764 l -7.7923,3.62508 0.6246,19.07714 0.6246,19.07714 5.357,4.9596 c 2.9463,2.72778 6.5749,7.18408 8.0635,9.90288 2.4437,4.46314 2.7096,5.79914 2.7383,13.75487 0.028,7.78128 -0.2679,9.4216 -2.5303,14.02856 -2.8815,5.86755 -9.5291,12.56941 -15.6251,15.7527 -3.372,1.76082 -5.7516,2.16706 -13.8129,2.35818 -5.3565,0.12699 -11.0615,-0.10577 -12.6776,-0.51723 z m 15.4227,-15.52196 c 1.6792,-0.33584 5.0657,-2.51622 7.7681,-5.00152 l 4.7911,-4.40611 -0.1557,-5.56401 c -0.292,-10.42901 -5.9048,-16.14121 -15.8137,-16.09382 -9.0028,0.0431 -13.8105,2.82274 -17.0601,9.86376 -2.1834,4.73076 -2.1809,7.12368 0.012,11.39927 4.036,7.87005 11.7177,11.55061 20.4586,9.80243 z m 97.3684,-183.82738 c 9.9749,-8.061493 8.8866,-20.732728 -2.2435,-26.120683 -5.7001,-2.759381 -14.5774,-2.382646 -18.6105,0.789796 -7.728,6.078862 -8.9688,16.275977 -2.8196,23.17217 5.6126,6.294317 17.2441,7.354957 23.6736,2.158717 z m -94.2721,-50.569489 c 3.5704,-1.491812 8.9518,-7.342263 9.1151,-9.909567 0.064,-1.002539 0.1833,-2.344537 0.2657,-2.982218 0.3913,-3.029449 -1.5344,-9.632382 -3.4013,-11.662279 -4.7822,-5.199887 -14.4329,-7.217483 -20.577,-4.301905 -3.825,1.81509 -8.2317,6.512688 -9.7658,10.410511 -2.3113,5.872454 2.8948,16.082413 9.5749,18.77786 3.0869,1.245587 11.4623,1.057332 14.7884,-0.332402 z"
     style="opacity:1;fill:#4285f4;fill-opacity:0.00392157" />
  <path
     transform="scale(9.9999999,9.9999999)"
     id="path4250"
     d="m 1463.9308,299.91332 c -3.9665,-1.0079 -11.7662,-6.09089 -14.7044,-9.58274 -1.305,-1.55082 -3.497,-4.95147 -4.8713,-7.55701 -2.2305,-4.22906 -2.4987,-5.73252 -2.4993,-14.0127 -9e-4,-11.2363 1.4817,-14.73223 9.8685,-23.26975 l 5.5469,-5.64656 -0.2878,-87.70811 -0.2878,-87.708101 -5.3737,-5.633388 c -7.6841,-8.055225 -9.445,-12.395445 -9.4571,-23.309454 -0.012,-10.649741 1.9607,-15.518635 9.2197,-22.75764 7.1346,-7.1148872 10.1763,-8.2560481 22.9823,-8.6220881 10.0376,-0.2869091 11.2757,-0.129054 16.0185,2.0422611 6.1281,2.8055284 13.3358,9.902297 16.3218,16.070473 1.814,3.747212 2.1527,5.910289 2.1493,13.72713 -0,8.513396 -0.2292,9.691953 -2.7332,14.28402 -1.5859,2.908357 -5.2145,7.18248 -8.662,10.202899 l -5.9327,5.197873 0.5419,48.602555 c 0.3152,28.26598 0.9064,48.96696 1.4129,49.47346 1.9848,1.98486 26.6177,-4.39678 33.633,-8.7133 9.5813,-5.89545 19.7104,-21.59598 20.8505,-32.31924 l 0.5424,-5.10145 -5.7839,-6.46636 c -8.1067,-9.0633 -9.6802,-12.854068 -9.6362,-23.214796 0.031,-7.306771 0.3695,-9.016131 2.7137,-13.706721 3.0101,-6.022826 9.3459,-12.429576 15.4379,-15.610766 3.3086,-1.727729 5.9409,-2.198512 14.0146,-2.506476 9.4946,-0.362166 10.2074,-0.2544 15.8825,2.401307 7.752,3.627591 12.9391,8.414852 16.0852,14.845326 2.2835,4.667299 2.5437,6.19963 2.5453,14.98949 0,8.322746 -0.3071,10.377925 -2.0578,13.706986 -2.7085,5.15009 -7.1713,10.15822 -11.471,12.87248 -2.7346,1.72631 -3.5847,2.93449 -4.0012,5.68713 -3.8711,25.57958 -12.7745,43.66591 -27.5476,55.96022 -9.5342,7.93449 -17.8905,11.4617 -36.3558,15.34584 -7.2693,1.52908 -14.013,3.65694 -19.0515,6.01136 l -7.7992,3.64446 0.5923,19.03755 0.5922,19.03754 5.3962,4.99596 c 2.968,2.74778 6.6142,7.22044 8.1028,9.93924 2.4437,4.46314 2.7096,5.79914 2.7383,13.75487 0.028,7.78128 -0.2679,9.4216 -2.5303,14.02856 -2.8815,5.86755 -9.5291,12.56941 -15.6251,15.7527 -3.372,1.76082 -5.7516,2.16706 -13.8129,2.35818 -5.3565,0.12699 -11.0746,-0.10846 -12.7069,-0.52322 z m 17.7416,-16.34235 c 1.6479,-0.78199 4.6327,-3.09807 6.6329,-5.14686 3.48,-3.56457 3.6334,-3.97736 3.559,-9.58084 -0.089,-6.6938 -2.0097,-10.23576 -7.3362,-13.52772 -6.0636,-3.74756 -17.2643,-2.44388 -22.065,2.56821 -2.6927,2.81115 -5.3037,8.3979 -5.3037,11.34804 0,2.64077 3.0471,8.35413 5.8508,10.97045 4.7413,4.42442 13.2143,5.95388 18.6622,3.36872 z m 93.9952,-181.92901 c 1.3353,-0.99699 3.6477,-3.31975 5.1385,-5.161689 5.7701,-7.12913 2.5195,-18.226613 -6.5085,-22.220134 -5.7999,-2.565571 -14.3302,-2.067935 -18.5901,1.084496 -3.5194,2.604491 -6.722,8.66766 -6.722,12.726242 0,6.34955 5.322,13.501675 10.97,14.742405 1.3636,0.29955 2.8967,0.70629 3.4068,0.90385 2.312,0.8954 10.0815,-0.41485 12.3053,-2.07517 z M 1484.788,48.903887 c 7.6454,-4.516226 9.5392,-16.930062 3.5869,-23.511754 -4.2787,-4.731046 -13.6286,-7.025632 -19.5124,-4.788599 -3.9723,1.510265 -9.4608,7.18808 -10.7632,11.134504 -1.0404,3.1524 -1.0308,4.371799 0.061,7.679207 1.6929,5.12951 7.04,10.429498 11.6323,11.529726 4.3254,1.0363 11.4187,0.06987 14.9956,-2.043084 z"
     style="opacity:1;fill:#4285f4;fill-opacity:0.00392157" />
  <path
     transform="scale(9.9999999,9.9999999)"
     id="path4252"
     d="m 1463.6479,299.55789 c -8.1504,-2.2965 -14.7708,-8.15619 -19.5999,-17.34775 -1.8811,-3.58035 -2.1929,-5.49293 -2.1929,-13.44927 0,-11.20555 1.4722,-14.67236 9.8767,-23.25785 l 5.5158,-5.63466 -0.276,-87.71999 -0.276,-87.719984 -5.3737,-5.633406 c -7.6841,-8.055257 -9.445,-12.395469 -9.4571,-23.309473 -0.012,-10.649741 1.9607,-15.518635 9.2197,-22.75764 7.1346,-7.1148872 10.1763,-8.2560481 22.9823,-8.6220881 10.0025,-0.285906 11.2868,-0.1239731 15.9504,2.0110833 6.2539,2.8631293 12.5851,9.0585158 15.9486,15.6063238 2.2793,4.437196 2.5408,5.912847 2.5215,14.226089 -0.027,11.591127 -1.581,15.033087 -10.787,23.89177 l -6.5143,6.26858 0.5444,48.344155 c 0.3248,28.84294 0.9032,48.70305 1.4341,49.23387 1.529,1.52907 22.3974,-3.17062 30.7775,-6.93132 10.1164,-4.53985 22.4957,-22.335 23.7095,-34.08242 l 0.5272,-5.10145 -5.6192,-6.41857 c -6.995,-7.99019 -9.4349,-12.945869 -10.0312,-20.374677 -1.0623,-13.233308 6.05,-25.648166 18.5024,-32.297011 3.5178,-1.878318 5.2857,-2.12713 15.1142,-2.12713 10.272,0 11.4881,0.190365 15.7681,2.468312 7.0733,3.764616 12.1454,8.635495 14.9399,14.347227 2.2548,4.608582 2.5384,6.251961 2.5968,15.048576 0.061,9.234589 -0.1099,10.193133 -2.6414,14.780203 -2.4596,4.45664 -7.2779,9.5237 -12.5348,13.18177 -1.5525,1.08038 -2.2117,2.9358 -2.9497,8.30265 -2.6551,19.30969 -13.0769,40.09542 -25.4676,50.79394 -10.0769,8.70066 -19.7396,12.80554 -40.901,17.37556 -6.2833,1.35693 -12.8709,3.49373 -16.6957,5.41551 l -6.3175,3.17424 0.184,19.01645 0.184,19.01645 5.949,5.94893 c 8.6602,8.66026 10.2612,12.23749 10.326,23.07221 0.047,7.80527 -0.2399,9.4074 -2.5093,14.02856 -2.8832,5.87086 -9.5342,12.57428 -15.6251,15.7482 -3.299,1.71909 -5.8378,2.17401 -13.3492,2.39204 -5.5282,0.16048 -10.9632,-0.20635 -13.4535,-0.90801 z m 17.8891,-15.84849 c 1.6416,-0.70584 4.6543,-3.02193 6.6949,-5.14686 3.5561,-3.70316 3.7069,-4.10651 3.6324,-9.71927 -0.1329,-10.01298 -6.0567,-15.61863 -16.505,-15.61863 -8.5202,0 -13.6857,3.28135 -16.7643,10.64953 -1.874,4.48509 -1.8106,6.54809 0.3292,10.72075 4.3736,8.52831 14.4915,12.60648 22.6128,9.11448 z m 94.0999,-182.04457 c 1.3523,-1.00957 3.7109,-3.382782 5.2414,-5.273806 5.7446,-7.097701 2.4642,-18.129903 -6.5807,-22.130887 -5.7999,-2.565571 -14.3302,-2.067935 -18.5901,1.084496 -10.3233,7.639546 -8.0404,22.980554 4.0886,27.475777 4.7768,1.77036 12.6956,1.19269 15.8408,-1.15558 z m -92.167,-52.221837 c 6.5238,-3.184925 8.6902,-7.926957 8.1449,-17.82835 -0.3115,-5.655787 -8.9194,-11.836889 -16.5399,-11.876881 -5.1173,-0.02685 -7.7958,1.076727 -12.141,5.002362 -4.889,4.416952 -6.5126,9.408578 -4.7738,14.677121 3.4756,10.531359 14.9577,15.079633 25.3098,10.025748 z"
     style="opacity:1;fill:#4285f4;fill-opacity:0.00392157" />
  <path
     transform="scale(9.9999999,9.9999999)"
     id="path4254"
     d="m 1463.6479,299.50816 c -8.0901,-2.1832 -14.8147,-8.12648 -19.5721,-17.29802 -1.8379,-3.54313 -2.1693,-5.57564 -2.1929,-13.44927 -0.034,-11.20205 1.4276,-14.65509 9.8364,-23.24528 l 5.5034,-5.6221 -0.2635,-87.68502 -0.2636,-87.685037 -5.4779,-5.916486 c -7.7811,-8.403883 -9.3408,-12.259798 -9.3529,-23.12144 -0.012,-10.623951 1.8283,-15.168322 9.158,-22.617385 7.135,-7.2511872 10.1501,-8.3938756 23.125,-8.7641935 10.3993,-0.2968069 11.2263,-0.1822155 16.1814,2.2420668 6.4968,3.178615 12.3316,8.9228317 15.5851,15.3432717 2.2137,4.3687 2.4915,5.959211 2.4915,14.267661 0,11.675968 -1.5022,15.028038 -10.7017,23.880521 l -6.5106,6.264985 0.5171,48.757086 c 0.2844,26.81639 0.7555,48.99546 1.0468,49.28682 1.2679,1.2678 23.9781,-4.09866 31.1846,-7.36899 10.1483,-4.60524 22.4969,-22.36728 23.7095,-34.10344 l 0.5272,-5.10145 -5.6192,-6.41857 c -6.995,-7.99019 -9.4349,-12.945869 -10.0312,-20.374677 -1.0561,-13.156506 6.1434,-25.691356 18.5699,-32.33149 3.4398,-1.838016 5.2706,-2.092651 15.0467,-2.092651 10.5627,0 11.3796,0.138024 16.0145,2.706004 7.4199,4.111058 11.9032,8.406342 14.664,14.049283 2.2292,4.556192 2.5071,6.195798 2.5506,15.048577 0.042,8.535374 -0.2433,10.497484 -2.0248,13.925384 -2.0363,3.91829 -8.8916,11.3559 -12.9931,14.09684 -1.6592,1.10878 -2.2749,2.79478 -3.0323,8.30265 -2.6575,19.32715 -13.8051,41.32685 -26.0079,51.3261 -10.283,8.42613 -19.8264,12.40881 -40.3607,16.8434 -6.281,1.35646 -12.8722,3.49419 -16.6957,5.41493 l -6.3175,3.17366 0.1604,18.99337 0.1603,18.99337 6.1259,6.12593 c 8.2192,8.21915 10.1393,12.63959 10.1774,23.42979 0.026,7.3008 -0.2992,9.04323 -2.5412,13.62559 -3.3115,6.76845 -11.0393,13.88934 -17.8308,16.43036 -5.9117,2.21185 -17.6419,2.53101 -24.5461,0.66785 z m 17.8891,-15.79876 c 1.6416,-0.70584 4.6543,-3.02193 6.6949,-5.14686 3.5658,-3.71316 3.7071,-4.09412 3.6312,-9.79086 -0.066,-4.94855 -0.495,-6.47291 -2.5987,-9.23094 -3.5238,-4.61997 -7.2882,-6.3161 -14.018,-6.3161 -8.3997,0 -13.5883,3.31841 -16.6514,10.64953 -1.874,4.48509 -1.8106,6.54809 0.3292,10.72075 4.3736,8.52831 14.4915,12.60648 22.6128,9.11448 z m 94.0999,-182.04457 c 1.3523,-1.00957 3.7109,-3.382782 5.2414,-5.273806 5.7446,-7.097701 2.4642,-18.129903 -6.5807,-22.130887 -5.7999,-2.565571 -14.3302,-2.067935 -18.5901,1.084496 -3.5656,2.638686 -6.722,8.681552 -6.722,12.869308 0,6.45581 4.2265,12.166259 10.8106,14.606469 4.7768,1.77036 12.6956,1.19269 15.8408,-1.15558 z m -92.167,-52.221837 c 6.5238,-3.184925 8.6902,-7.926957 8.1449,-17.82835 -0.3115,-5.655787 -8.9194,-11.836889 -16.5399,-11.876881 -5.1173,-0.02685 -7.7958,1.076727 -12.141,5.002362 -4.889,4.416952 -6.5126,9.408578 -4.7738,14.677121 3.4756,10.531359 14.9577,15.079633 25.3098,10.025748 z"
     style="opacity:1;fill:#e5e5e5;fill-opacity:0.92156863" />
  <path
     transform="scale(9.9999999,9.9999999)"
     id="path4256"
     d="m 1462.7246,299.32345 c -8.6959,-2.72555 -17.8402,-12.46128 -20.4175,-21.73826 -1.3498,-4.85866 -1.1046,-13.88077 0.5266,-19.37361 1.1169,-3.76099 2.915,-6.40728 7.9684,-11.72721 l 6.526,-6.87021 -0.3162,-87.54527 -0.3163,-87.54527 -5.4779,-5.91658 c -7.8074,-8.432432 -9.3612,-12.270343 -9.3612,-23.121533 0,-11.044483 1.8836,-15.57661 9.6206,-23.147202 7.1232,-6.9700393 11.2237,-8.3919283 24.1664,-8.3799686 8.4229,0.00778 10.4877,0.3265639 14.6413,2.2604044 6.0738,2.8278366 12.3887,9.0811932 15.657,15.5044452 2.2564,4.434369 2.5165,5.930766 2.4938,14.347137 -0.023,8.566845 -0.2604,9.828397 -2.6884,14.289478 -1.5064,2.767771 -5.2224,7.146809 -8.5552,10.081851 l -5.8921,5.188783 0.6264,48.695655 c 0.3446,26.78261 0.9333,49.01465 1.3083,49.40455 0.8971,0.93283 14.3424,-1.64889 23.2629,-4.46688 3.8882,-1.22827 9.0266,-3.52959 11.4187,-5.11403 8.4127,-5.57237 17.4237,-19.73728 19.4346,-30.55044 l 1.0154,-5.45965 -3.6324,-4.27749 c -7.3703,-8.6793 -9.6847,-12.16343 -11.0482,-16.631947 -4.5118,-14.786095 2.7427,-30.943544 17.4126,-38.78248 3.4398,-1.838016 5.2706,-2.092651 15.0467,-2.092651 10.272,0 11.4881,0.190365 15.7681,2.468312 7.0733,3.764616 12.1454,8.635495 14.9399,14.347227 2.2611,4.621479 2.5359,6.227345 2.5756,15.048576 0.055,12.146843 -1.3525,15.371473 -10.5848,24.256603 l -6.2695,6.03376 -1.4888,7.9452 c -3.8029,20.29443 -13.4889,38.86426 -25.6916,49.25541 -9.5829,8.16028 -18.6278,12.02543 -39.7362,16.9805 -5.8318,1.36898 -13.4492,3.76157 -16.9275,5.31686 l -6.3243,2.8278 0,19.04794 0,19.04793 5.892,6.10325 c 8.5935,8.90171 10.1662,12.46684 10.2618,23.26266 0.07,7.8577 -0.2025,9.38294 -2.5137,14.08936 -3.3366,6.79448 -11.0593,13.9124 -17.8519,16.45385 -6.1333,2.29476 -18.9157,2.53722 -25.4694,0.48314 z m 19.0225,-16.06053 c 2.0449,-0.929 5.071,-3.23002 6.7246,-5.11336 2.7117,-3.08847 3.0066,-3.99884 3.0066,-9.2838 0,-9.93407 -5.6254,-15.4292 -15.7537,-15.38887 -8.9173,0.0355 -14.3528,3.69465 -17.6081,11.85376 -1.6893,4.23396 -0.01,9.48027 4.4732,13.96191 5.5412,5.54126 12.517,6.98699 19.1574,3.97036 z m 93.4474,-181.58162 c 1.4196,-0.73414 3.8628,-3.09375 5.4293,-5.243566 2.5321,-3.47511 2.808,-4.47938 2.487,-9.052342 -0.4545,-6.473321 -2.5395,-9.436109 -8.8604,-12.590825 -10.838,-5.40909 -22.7619,0.04537 -24.8893,11.385332 -1.2964,6.910465 4.5145,15.229561 11.9269,17.075071 3.7712,0.93892 10.5258,0.17456 13.9065,-1.57367 z m -92.0362,-52.514633 c 5.8141,-2.937218 8.32,-7.057725 8.32,-13.68116 0,-9.456558 -6.4375,-15.304348 -16.8477,-15.304348 -4.3342,0 -5.9572,0.489077 -9.2753,2.795015 -4.9552,3.443561 -8.4952,9.866353 -7.6615,13.900638 2.4516,11.863632 14.6523,17.75201 25.4645,12.289855 z"
     style="opacity:1;fill:#ebebeb;fill-opacity:1" />
  <ellipse
     ry="174.33501"
     rx="177.07584"
     cy="2697.2419"
     cx="14749.699"
     id="path4281"
     style="opacity:1;fill:#ffffff;fill-opacity:1" />
  <ellipse
     ry="174.33501"
     rx="177.07584"
     cy="889.90936"
     cx="15662.107"
     id="path4281-3"
     style="opacity:1;fill:#ffffff;fill-opacity:1" />
  <ellipse
     ry="174.33501"
     rx="177.07584"
     cy="354.06198"
     cx="14757.335"
     id="path4281-6"
     style="opacity:1;fill:#ffffff;fill-opacity:1" />
  <ellipse
     ry="281.99045"
     rx="295.95175"
     cy="2068.4844"
     cx="10816.069"
     id="path4281-7"
     style="opacity:1;fill:#4285f4;fill-opacity:1" />
  <ellipse
     ry="281.99045"
     rx="295.95175"
     cy="2064.4927"
     cx="6463.7681"
     id="path4281-7-5"
     style="opacity:1;fill:#4285f4;fill-opacity:1" />
</svg>
