<?xml version="1.0" encoding="UTF-8" standalone="no"?>
<svg
   xmlns:osb="http://www.openswatchbook.org/uri/2009/osb"
   xmlns:dc="http://purl.org/dc/elements/1.1/"
   xmlns:cc="http://creativecommons.org/ns#"
   xmlns:rdf="http://www.w3.org/1999/02/22-rdf-syntax-ns#"
   xmlns:svg="http://www.w3.org/2000/svg"
   xmlns="http://www.w3.org/2000/svg"
   xmlns:sodipodi="http://sodipodi.sourceforge.net/DTD/sodipodi-0.dtd"
   xmlns:inkscape="http://www.inkscape.org/namespaces/inkscape"
   version="1.1"
   id="svg3779"
   viewBox="0 0 146.77161 23.37907"
   height="23.37907mm"
   width="146.77161mm"
   inkscape:version="0.91 r13725"
   sodipodi:docname="logo.svg">
  <sodipodi:namedview
     pagecolor="#ffffff"
     bordercolor="#666666"
     borderopacity="1"
     objecttolerance="10"
     gridtolerance="10"
     guidetolerance="10"
     inkscape:pageopacity="0"
     inkscape:pageshadow="2"
     inkscape:window-width="1920"
     inkscape:window-height="1025"
     id="namedview3416"
     showgrid="false"
     inkscape:zoom="3.3169449"
     inkscape:cx="199.73199"
     inkscape:cy="41.419613"
     inkscape:window-x="0"
     inkscape:window-y="27"
     inkscape:window-maximized="1"
     inkscape:current-layer="layer1" />
  <defs
     id="defs3781">
    <linearGradient
       osb:paint="solid"
       id="linearGradient6272">
      <stop
         id="stop6274"
         offset="0"
         style="stop-color:#4285f4;stop-opacity:1;" />
    </linearGradient>
    <linearGradient
       osb:paint="solid"
       id="linearGradient6210">
      <stop
         id="stop6212"
         offset="0"
         style="stop-color:#000000;stop-opacity:1;" />
    </linearGradient>
    <linearGradient
       osb:paint="solid"
       id="linearGradient6090">
      <stop
         id="stop6092"
         offset="0"
         style="stop-color:#000000;stop-opacity:1;" />
    </linearGradient>
    <linearGradient
       osb:paint="solid"
       id="linearGradient6054">
      <stop
         id="stop6056"
         offset="0"
         style="stop-color:#000000;stop-opacity:1;" />
    </linearGradient>
    <linearGradient
       osb:paint="solid"
       id="linearGradient6048">
      <stop
         id="stop6050"
         offset="0"
         style="stop-color:#000000;stop-opacity:1;" />
    </linearGradient>
  </defs>
  <metadata
     id="metadata3785">
    <rdf:RDF>
      <cc:Work
         rdf:about="">
        <dc:format>image/svg+xml</dc:format>
        <dc:type
           rdf:resource="http://purl.org/dc/dcmitype/StillImage" />
        <dc:title />
      </cc:Work>
    </rdf:RDF>
  </metadata>
  <g
     transform="translate(-133.24442,-14.084569)"
     id="layer1">
    <text
       id="text3788"
       y="31.807842"
       x="132.69127"
       style="font-style:normal;font-weight:normal;font-size:11.28888893px;line-height:125%;font-family:sans-serif;letter-spacing:0px;word-spacing:0px;fill:#000000;fill-opacity:1;stroke:none;stroke-width:1px;stroke-linecap:butt;stroke-linejoin:miter;stroke-opacity:1"
       xml:space="preserve"><tspan
         style="font-style:normal;font-variant:normal;font-weight:bold;font-stretch:normal;font-family:'Source Code Pro for Powerline';-inkscape-font-specification:'Source Code Pro for Powerline'"
         y="31.807842"
         x="132.69127"
         id="tspan3790">thoughts ideas bugs</tspan></text>
    <path
       style="opacity:1;fill:#4285f4;fill-opacity:1;fill-rule:nonzero;stroke:none;stroke-width:0.10388531;stroke-miterlimit:4;stroke-dasharray:none;stroke-opacity:1"
       d="m 190.73727,29.368114 c -0.69257,0 -1.14493,0.19445 -1.54891,0.66642 -0.89314,1.04342 -0.59241,2.580975 0.62287,3.186575 1.35336,0.67441 2.99014,-0.306247 2.98814,-1.790347 -0.002,-1.2255 -0.83878,-2.062648 -2.0621,-2.062648 z m 39.78562,0.05182 a 2.0221641,2.0221641 0 0 0 -2.02186,2.022408 2.0221641,2.0221641 0 0 0 2.02186,2.021858 2.0221641,2.0221641 0 0 0 2.02241,-2.021858 2.0221641,2.0221641 0 0 0 -2.02241,-2.022408 z"
       id="path6086-7"
       inkscape:connector-curvature="0" />
    <path
       id="path6299"
       d="m 267.82659,34.793099 c -1.13649,-0.29726 -1.88773,-1.24323 -1.91718,-2.41414 -0.0216,-0.86119 0.17,-1.35091 0.75184,-1.92114 l 0.47467,-0.46519 0,-4.19676 0,-4.19676 -0.36694,-0.32299 c -0.20181,-0.17764 -0.45505,-0.47477 -0.56274,-0.66028 -0.40018,-0.68939 -0.41967,-1.75693 -0.0455,-2.49045 0.18686,-0.36627 0.86641,-1.00176 0.98972,-0.92555 0.0528,0.0327 0.0694,0.0206 0.0391,-0.0285 -0.0714,-0.11547 0.4941,-0.33276 1.02978,-0.39571 0.29213,-0.0343 0.57746,-0.009 0.87368,0.0773 0.54564,0.15907 1.24223,0.58859 1.16286,0.71702 -0.0334,0.054 -0.0216,0.0708 0.0281,0.04 0.1103,-0.0682 0.54876,0.62181 0.66309,1.04345 0.26865,0.99084 -0.12413,2.14181 -0.92893,2.72206 l -0.28176,0.20314 0.0201,2.97946 c 0.0111,1.6387 0.0384,2.99748 0.0607,3.01952 0.0224,0.022 0.31237,-0.0512 0.6445,-0.16273 0.3806,-0.12782 0.92137,-0.22768 1.4626,-0.2701 0.90729,-0.0711 1.27368,-0.1658 1.67129,-0.43192 0.83688,-0.56014 1.27845,-1.28221 1.32984,-2.17463 0.0199,-0.34514 5.7e-4,-0.38604 -0.26805,-0.56879 -1.31127,-0.892 -1.34634,-2.98549 -0.0675,-4.02799 1.60512,-1.30846 3.97478,-0.34499 4.1615,1.69199 0.0285,0.31109 0.0244,0.58259 -0.009,0.60334 -0.0336,0.0207 -0.0418,0.0879 -0.0183,0.1491 0.0605,0.15775 -0.29417,0.94898 -0.39694,0.88547 -0.051,-0.0315 -0.0596,-0.0121 -0.0217,0.0491 0.0403,0.0652 -0.0808,0.23599 -0.34008,0.47977 -0.38519,0.36219 -0.40504,0.40225 -0.45834,0.92521 -0.19545,1.91748 -1.46699,3.6691 -3.26116,4.4924 -0.70799,0.32488 -1.14218,0.43028 -1.86888,0.45368 -0.64259,0.0207 -1.18492,0.17369 -1.54385,0.43557 -0.13408,0.0978 -0.31192,0.20303 -0.39521,0.23381 -0.14119,0.0522 -0.14257,0.0683 -0.0204,0.23778 0.45617,0.63291 0.57582,0.98234 0.57698,1.68506 8.5e-4,0.57001 -0.0336,0.76128 -0.19774,1.09483 -0.25286,0.51384 -0.75159,1.01366 -1.25426,1.257 -0.42159,0.20409 -1.27624,0.29252 -1.71583,0.17754 z m 1.17143,-1.31533 c 0.16388,-0.051 0.39345,-0.28418 0.5783,-0.58736 0.47708,-0.78243 -0.17402,-1.87736 -1.10525,-1.85867 -1.34038,0.0269 -1.79154,1.67055 -0.65354,2.38097 0.23862,0.14896 0.80982,0.18044 1.18049,0.0651 z m 7.77444,-10.38811 c 0.92271,-0.41905 0.96311,-1.74633 0.069,-2.266 -0.80046,-0.46524 -1.79368,0.0722 -1.88473,1.01985 -0.0459,0.47724 0.10293,0.81417 0.48752,1.10398 0.43483,0.32767 0.8273,0.36967 1.32825,0.14217 z m -7.72473,-2.55792 c 0.24706,-0.11629 0.5971,-0.60476 0.65516,-0.91426 0.12419,-0.66197 -0.26953,-1.30038 -0.92264,-1.49605 -0.92874,-0.27826 -1.84668,0.63317 -1.56948,1.55837 0.10869,0.36276 0.5163,0.83797 0.77833,0.9074 0.24551,0.0651 0.87236,0.0322 1.05863,-0.0555 z"
       style="opacity:1;fill:none;fill-opacity:0.39215686;fill-rule:nonzero;stroke:none;stroke-width:0.21968503;stroke-miterlimit:4;stroke-dasharray:none;stroke-opacity:1" />
    <path
       style="fill:#dbdbdb;fill-opacity:1;stroke:none;stroke-width:0.15000001;stroke-miterlimit:4;stroke-dasharray:none;stroke-opacity:1"
       id="path6871"
       d="m 276.67243,17.428166 c -1.85467,0 -3.34361,1.488948 -3.34361,3.3436 0,1.227729 0.67918,2.298724 1.67179,2.873409 l 0,0.470193 c 0,1.671799 -1.67179,3.343599 -3.34359,3.343599 -1.38447,0 -2.48158,0.287337 -3.34361,0.757532 l 0,-7.914928 c 0.99264,-0.57468 1.67181,-1.645674 1.67181,-2.873405 0,-1.854651 -1.48894,-3.343597 -3.3436,-3.343597 -1.85466,0 -3.3436,1.488946 -3.3436,3.343597 0,1.227731 0.67916,2.298725 1.67179,2.873405 l 0,10.945063 c -0.99263,0.574682 -1.67179,1.645679 -1.67179,2.873409 0,1.854648 1.48894,3.343597 3.3436,3.343597 1.85466,0 3.3436,-1.488949 3.3436,-3.343597 0,-0.888144 -0.33959,-1.671801 -0.88815,-2.272605 0.49631,-0.600804 1.27998,-1.070997 2.55995,-1.070997 3.34359,0 6.6872,-3.3436 6.6872,-6.687197 l 0,-0.470194 c 0.99264,-0.574679 1.67181,-1.645678 1.67181,-2.873404 0,-1.854655 -1.48897,-3.3436 -3.3436,-3.3436 z m -10.03081,-1.671797 c 0.91428,0 1.67179,0.757533 1.67179,1.671797 0,0.914269 -0.75751,1.671802 -1.67179,1.671802 -0.91427,0 -1.67181,-0.757533 -1.67181,-1.671802 0,-0.914264 0.75754,-1.671797 1.67181,-1.671797 z m 0,20.061593 c -0.91427,0 -1.67181,-0.757532 -1.67181,-1.671799 0,-0.914264 0.75754,-1.6718 1.67181,-1.6718 0.91428,0 1.67179,0.757536 1.67179,1.6718 0,0.914267 -0.75751,1.671799 -1.67179,1.671799 z m 10.03081,-13.374393 c -0.91429,0 -1.67182,-0.757536 -1.67182,-1.671803 0,-0.914264 0.75753,-1.671798 1.67182,-1.671798 0.91425,0 1.67179,0.757534 1.67179,1.671798 0,0.914267 -0.75754,1.671803 -1.67179,1.671803 z" />
  </g>
</svg>
