<?xml version="1.0" encoding="UTF-8" standalone="no"?>
<svg
   xmlns:dc="http://purl.org/dc/elements/1.1/"
   xmlns:cc="http://creativecommons.org/ns#"
   xmlns:rdf="http://www.w3.org/1999/02/22-rdf-syntax-ns#"
   xmlns:svg="http://www.w3.org/2000/svg"
   xmlns="http://www.w3.org/2000/svg"
   xmlns:sodipodi="http://sodipodi.sourceforge.net/DTD/sodipodi-0.dtd"
   xmlns:inkscape="http://www.inkscape.org/namespaces/inkscape"
   version="1.0"
   width="1600px"
   height="301px"
   viewBox="0 0 16000 3010"
   preserveAspectRatio="xMidYMid meet"
   id="svg3499"
   inkscape:version="0.91 r13725"
   sodipodi:docname="logo_8.svg">
  <metadata
     id="metadata3550">
    <rdf:RDF>
      <cc:Work
         rdf:about="">
        <dc:format>image/svg+xml</dc:format>
        <dc:type
           rdf:resource="http://purl.org/dc/dcmitype/StillImage" />
      </cc:Work>
    </rdf:RDF>
  </metadata>
  <defs
     id="defs3548" />
  <sodipodi:namedview
     pagecolor="#ffffff"
     bordercolor="#666666"
     borderopacity="1"
     objecttolerance="10"
     gridtolerance="10"
     guidetolerance="10"
     inkscape:pageopacity="0"
     inkscape:pageshadow="2"
     inkscape:window-width="1920"
     inkscape:window-height="1025"
     id="namedview3546"
     showgrid="false"
     inkscape:zoom="1.078125"
     inkscape:cx="1136.2319"
     inkscape:cy="76.297101"
     inkscape:window-x="0"
     inkscape:window-y="27"
     inkscape:window-maximized="1"
     inkscape:current-layer="svg3499" />
  <g
     id="layer1"
     style="fill:#4285f4;fill-opacity:0.25098039;stroke:none"
     transform="translate(9.2753622,-6.9565103)">
    <path
       d="m 6340,2333 c -171,-60 -255,-244 -179,-395 112,-224 455,-221 559,6 30,66 28,171 -4,234 -68,135 -236,204 -376,155 z"
       id="path3502"
       style="fill:#4285f4;fill-opacity:0.25098039"
       inkscape:connector-curvature="0" />
    <path
       d="m 10701,2330 c -86,-31 -136,-73 -174,-145 -29,-54 -31,-191 -4,-248 85,-176 337,-221 489,-88 169,149 108,409 -115,485 -63,21 -129,20 -196,-4 z"
       id="path3504"
       style="fill:#4285f4;fill-opacity:0.25098039"
       inkscape:connector-curvature="0" />
  </g>
  <g
     id="layer2"
     fill="#d2d2d2"
     stroke="none">
    <path
       d="M14625 2996 c-130 -49 -215 -171 -215 -309 0 -100 35 -173 115 -245 l45 -40 0 -886 c0 -568 -3 -886 -10 -886 -19 0 -100 -91 -122 -138 -27 -59 -36 -168 -17 -226 28 -88 96 -167 178 -208 39 -19 62 -23 152 -23 92 0 111 3 152 24 82 42 148 114 174 191 17 48 16 180 -1 221 -22 53 -70 114 -115 145 l-41 29 0 503 c0 475 1 503 18 498 9 -2 44 -10 77 -16 172 -32 241 -58 307 -118 84 -76 158 -221 158 -310 0 -29 -9 -43 -53 -86 -99 -95 -130 -213 -89 -338 22 -66 69 -128 126 -166 69 -47 104 -57 201 -57 81 1 96 4 158 34 70 35 122 85 154 150 22 45 30 186 13 245 -16 58 -77 136 -127 164 -40 22 -41 23 -47 91 -12 118 -70 277 -140 381 -114 170 -268 264 -496 300 -93 15 -151 34 -212 67 l-48 26 0 199 c0 164 2 198 14 198 25 0 108 93 133 148 34 78 33 193 -4 268 -32 66 -95 127 -166 160 -44 20 -66 24 -147 23 -52 -1 -109 -6 -125 -13z m176 -153 c19 -4 50 -24 76 -49 40 -41 43 -47 43 -99 0 -60 -10 -86 -44 -119 -38 -36 -64 -46 -122 -46 -77 0 -134 33 -163 95 -26 55 -26 68 -2 121 36 80 116 116 212 97z m936 -1815 c15 -7 42 -27 59 -45 107 -112 -2 -281 -165 -259 -160 22 -192 236 -46 301 38 17 116 19 152 3z m-911 -527 c62 -28 94 -76 94 -140 0 -86 -38 -135 -127 -161 -83 -25 -180 28 -212 115 -11 32 -11 45 0 79 33 103 146 152 245 107z"
       id="path3507" />
  </g>
  <g
     id="layer3"
     fill="#000000"
     stroke="none">
    <path
       d="M3295 2457 c-97 -33 -136 -67 -156 -134 -20 -68 12 -143 77 -181 13 -8 15 -14 8 -19 -24 -17 -54 -80 -54 -115 0 -46 17 -85 50 -118 l25 -26 -36 -48 c-49 -65 -66 -136 -49 -207 14 -56 44 -112 76 -140 60 -53 170 -85 254 -75 30 4 124 9 208 12 l152 5 0 85 0 84 -47 0 -48 0 0 92 c0 95 -9 125 -52 174 -44 51 -164 89 -256 82 -75 -7 -87 -3 -87 28 0 42 42 54 189 54 156 0 208 12 260 60 63 58 75 121 41 214 -32 84 -112 144 -230 172 -65 16 -282 17 -325 1z m260 -144 c79 -26 115 -74 79 -103 -21 -18 -264 -31 -280 -16 -43 43 -18 98 54 120 62 19 89 19 147 -1z m-32 -559 c45 -45 48 -115 6 -167 -16 -22 -29 -27 -63 -27 -60 0 -87 33 -87 105 0 57 13 88 46 104 36 17 71 12 98 -15z"
       id="path3510" />
    <path
       d="M13162 2454 c-109 -34 -147 -79 -147 -176 0 -65 1 -67 43 -108 42 -42 43 -43 25 -64 -11 -11 -25 -38 -32 -60 -17 -50 0 -113 41 -157 29 -30 29 -31 10 -47 -47 -41 -66 -93 -66 -182 0 -60 5 -94 16 -116 55 -102 179 -162 309 -150 35 4 133 9 217 12 l152 5 0 85 0 84 -56 0 c-49 0 -55 2 -49 18 15 37 17 93 5 143 -14 59 -71 130 -124 154 -75 34 -178 45 -230 25 -21 -8 -27 -6 -36 11 -15 27 -5 54 26 67 15 7 79 12 157 12 187 0 258 27 303 112 34 65 6 184 -56 245 -38 37 -105 70 -186 92 -57 15 -269 12 -322 -5z m297 -153 c48 -25 66 -53 51 -80 -12 -24 -39 -29 -173 -33 l-108 -3 -17 28 c-25 40 -2 75 63 99 60 22 126 18 184 -11z m-58 -552 c23 -25 29 -40 29 -76 0 -74 -30 -112 -90 -113 -47 0 -74 20 -89 68 -36 109 77 200 150 121z"
       id="path3512" />
    <path
       d="M289 2167 c-78 -26 -125 -80 -147 -169 -7 -27 -12 -122 -12 -222 l0 -176 -50 0 -50 0 0 -90 0 -89 33 -5 c17 -3 43 -7 57 -8 22 -3 25 -9 27 -43 2 -22 8 -66 14 -97 l12 -58 93 0 94 0 0 100 0 100 90 0 90 0 0 95 0 95 -90 0 -90 0 0 155 c0 217 15 246 121 232 45 -6 46 -5 59 60 25 120 27 110 -16 117 -76 13 -199 15 -235 3z"
       id="path3514" />
    <path
       d="M1734 2165 c-68 -21 -107 -45 -154 -94 -74 -77 -110 -170 -110 -286 0 -116 36 -209 110 -286 97 -101 231 -132 373 -87 155 49 247 187 247 373 0 194 -93 327 -269 384 -44 14 -145 12 -197 -4z m149 -187 c68 -39 100 -147 77 -259 -14 -67 -57 -123 -102 -134 -37 -9 -98 23 -122 65 -28 49 -30 207 -3 263 31 64 99 93 150 65z"
       id="path3516" />
    <path
       d="M2475 2164 c-51 -19 -88 -55 -117 -113 -21 -44 -23 -59 -26 -343 l-4 -298 115 0 115 0 4 253 c3 218 5 256 20 279 32 49 104 45 161 -10 l27 -26 0 -248 0 -249 118 3 117 3 0 370 0 370 -96 3 c-93 3 -97 2 -103 -20 -3 -13 -6 -34 -6 -47 l0 -25 -32 31 c-81 76 -196 103 -293 67z"
       id="path3518" />
    <path
       d="M4997 2161 c-58 -24 -73 -35 -102 -81 -36 -58 -45 -118 -45 -304 l0 -176 -50 0 -50 0 0 -90 0 -89 33 -5 c17 -3 43 -7 57 -8 20 -2 25 -9 27 -33 2 -16 8 -60 14 -97 l11 -68 94 0 94 0 0 100 0 100 90 0 90 0 0 95 0 95 -90 0 -90 0 0 155 c0 209 14 238 108 232 29 -2 55 0 58 4 4 7 15 55 30 135 6 30 5 32 -32 38 -101 18 -198 16 -247 -3z"
       id="path3520" />
    <path
       d="M5479 2157 c-68 -23 -149 -70 -149 -87 0 -6 19 -39 43 -75 40 -62 61 -76 83 -56 26 26 94 53 141 58 66 7 106 -14 101 -54 -3 -28 -40 -50 -148 -92 -75 -30 -128 -68 -158 -116 -21 -32 -26 -53 -26 -106 0 -120 53 -185 182 -225 110 -33 265 -1 354 74 16 13 15 17 -12 56 -16 22 -39 54 -53 70 l-23 29 -48 -27 c-64 -36 -127 -44 -161 -22 -41 27 -30 56 35 88 30 14 72 32 95 39 54 17 119 62 152 105 32 42 42 124 24 192 -38 140 -244 211 -432 149z"
       id="path3522" />
    <path
       d="M7559 2166 c-111 -35 -177 -123 -206 -271 -16 -88 -16 -144 2 -219 42 -176 161 -286 309 -286 40 0 146 37 146 51 0 5 3 9 8 9 4 0 5 -79 4 -175 l-4 -175 116 0 116 0 0 530 0 530 -95 0 c-84 0 -95 -2 -95 -17 0 -10 -4 -24 -9 -32 -8 -12 -12 -12 -26 2 -9 10 -41 28 -71 42 -60 27 -132 32 -195 11z m188 -188 c15 -6 38 -21 51 -32 21 -19 22 -27 22 -166 0 -165 -1 -167 -77 -189 -33 -9 -48 -9 -65 0 -69 36 -91 84 -91 198 1 105 24 163 76 185 41 18 50 19 84 4z"
       id="path3524" />
    <path
       d="M8460 2166 c-173 -48 -270 -183 -270 -380 0 -123 36 -212 120 -297 88 -89 212 -119 336 -83 76 22 131 67 172 143 35 63 36 67 36 180 l1 116 -223 3 -222 2 19 38 c41 80 84 106 174 105 42 0 77 -7 107 -22 24 -11 47 -21 50 -21 14 0 72 129 66 145 -3 9 -26 25 -51 36 -108 48 -222 60 -315 35z m200 -486 c0 -29 -27 -78 -49 -90 -25 -13 -94 -13 -123 1 -21 9 -78 85 -78 103 0 3 56 6 125 6 119 0 125 -1 125 -20z"
       id="path3526" />
    <path
       d="M9085 2160 c-81 -40 -125 -114 -125 -210 0 -73 17 -114 64 -158 60 -56 77 -63 222 -101 23 -6 60 -11 83 -11 32 0 41 -4 41 -17 -1 -41 -57 -83 -109 -83 -33 0 -132 34 -169 58 -12 8 -25 13 -27 10 -15 -15 -84 -152 -80 -159 5 -8 90 -50 130 -64 123 -44 254 -45 345 -2 37 17 86 72 112 125 22 45 23 58 26 330 l3 282 -96 0 c-84 0 -95 -2 -95 -17 -1 -41 -16 -46 -56 -19 -88 58 -195 72 -269 36z m252 -196 c31 -23 33 -29 33 -84 l0 -59 -37 6 c-84 13 -153 61 -153 107 0 59 95 77 157 30z"
       id="path3528" />
    <path
       d="M9888 2165 c-58 -16 -153 -62 -169 -81 -11 -14 9 -51 75 -136 13 -18 42 -24 48 -10 8 17 97 54 145 59 39 4 59 1 78 -11 54 -35 22 -76 -95 -123 -150 -60 -207 -114 -217 -205 -16 -156 100 -268 279 -268 43 0 123 17 173 36 33 12 95 56 95 66 0 11 -55 94 -81 121 -17 18 -19 18 -64 -7 -63 -36 -126 -44 -160 -22 -58 38 -24 68 157 141 116 46 167 128 154 243 -7 60 -41 120 -86 152 -75 53 -226 74 -332 45z"
       id="path3530" />
    <path
       d="M11660 2159 c-25 -11 -56 -31 -71 -45 l-25 -24 -13 35 -12 35 -90 0 -89 0 0 -530 0 -530 115 0 115 0 0 176 c0 97 3 174 8 172 4 -2 30 -14 57 -27 114 -55 243 -31 323 59 98 110 119 353 44 514 -71 152 -229 224 -362 165z m77 -181 c15 -7 34 -19 42 -26 26 -25 51 -111 51 -176 0 -100 -24 -152 -84 -183 -25 -13 -33 -13 -71 1 -81 32 -86 43 -83 207 l3 144 45 23 c51 26 59 26 97 10z"
       id="path3532" />
    <path
       d="M12336 2160 c-59 -29 -83 -57 -106 -117 -18 -49 -20 -78 -20 -344 l0 -290 113 3 112 3 3 255 c2 233 4 257 22 280 16 21 27 25 65 24 38 -1 52 -7 80 -34 l35 -34 0 -248 0 -248 115 0 115 0 0 375 0 375 -95 0 -95 0 -1 -27 c-1 -61 -11 -66 -52 -27 -75 71 -208 95 -291 54z"
       id="path3534" />
    <path
       d="M13965 2165 c-52 -15 -71 -22 -123 -48 -68 -33 -70 -40 -28 -100 72 -104 64 -100 134 -56 87 54 212 48 212 -10 0 -28 -27 -47 -136 -94 -102 -44 -165 -90 -190 -139 -21 -41 -18 -141 6 -188 36 -70 80 -102 176 -129 72 -19 168 -10 259 25 33 13 95 56 95 66 0 12 -91 138 -99 138 -3 0 -24 -11 -47 -24 -81 -46 -169 -45 -181 2 -5 20 0 30 23 49 16 12 34 23 39 23 25 0 165 64 197 90 96 79 103 230 16 320 -76 79 -231 112 -353 75z"
       id="path3536" />
    <path
       d="M662 1633 l3 -528 119 -3 119 -3 -5 186 c-3 102 -4 185 -1 185 2 0 21 -12 42 -26 83 -54 177 -67 262 -35 125 48 148 126 149 499 l0 252 -119 0 -120 0 -3 -263 c-3 -240 -5 -265 -21 -282 -37 -36 -143 -13 -179 40 -4 5 -8 121 -8 258 l0 247 -120 0 -120 0 2 -527z"
       id="path3538" />
    <path
       d="M3980 1630 l0 -530 116 0 116 0 -4 185 c-2 102 -1 185 2 185 4 0 15 -8 26 -17 10 -10 30 -23 44 -30 115 -53 222 -42 295 32 63 64 67 84 72 413 l5 292 -116 0 -116 0 -1 -217 c0 -234 -7 -305 -32 -330 -24 -24 -89 -18 -136 13 l-41 27 0 253 0 254 -115 0 -115 0 0 -530z"
       id="path3540" />
    <path
       d="M6970 1785 l0 -375 115 0 115 0 0 375 0 375 -115 0 -115 0 0 -375z"
       id="path3542" />
    <path
       d="M6993 1284 c-30 -23 -33 -30 -33 -80 0 -66 11 -89 50 -109 34 -18 119 -20 154 -4 36 17 59 72 52 123 -12 73 -44 96 -133 96 -47 0 -64 -5 -90 -26z"
       id="path3544" />
  </g>
</svg>
